<svg xmlns="http://www.w3.org/2000/svg" viewBox="0 0 534.13 451.39"><defs><style>.cls-1{fill:#fff;}</style></defs><g id="Layer_2" data-name="Layer 2"><g id="Layer_1-2" data-name="Layer 1"><polygon class="cls-1" points="72.8 408.9 72.8 150.36 269.42 37.42 210.91 0 0 121.11 0 408.9 72.8 408.9"/><polygon class="cls-1" points="411.09 210.47 407.21 210.47 407.21 121.78 262.58 37.98 264.52 34.62 411.09 119.55 411.09 210.47"/><rect class="cls-1" x="72.8" y="405.02" width="89.81" height="3.88"/><path class="cls-1" d="M173.13,223.67h26V225c-1.76.33-7.82.11-6.71,3.52l23.12,64.74c1,2.86,1.76,6.94,4.73,6.94s4.18-4.08,5.18-7.16l22-64.63c.55-2.75-5.18-3.19-6.83-3.41v-1.32h16.74V225c-2.87.44-7.05.44-8.37,3.52L227.08,293c-3.53,10.46-5.07,16.18-11.23,16.18s-7.93-5.06-11.78-16L180.84,228.4c-.77-2.53-4.85-3-7.71-3.41Z"/><path class="cls-1" d="M249.53,279.49c0-17.4,14-32.59,31.71-32.59,17,0,29.95,12.77,29.95,29.61,0,17.73-13.76,32.92-31.93,32.92A29.65,29.65,0,0,1,249.53,279.49Zm32.37,28.4c14.76,0,18.61-17.06,18.83-28.4.33-13.11-5.94-31.05-21.8-31.05-14.75,0-18.83,18.5-18.83,28.29C260.1,289.73,266.16,307.89,281.9,307.89Z"/><path class="cls-1" d="M315.92,248.22H333.1v30.5c2.31-11.9,14.09-31.27,25.32-31.27,15.52,0,15.08,13.43,15.08,29.5v27.31c0,2.75,4.85,3.19,7.16,3.41v1.1H356.33v-1.1c2.75-.22,7.16-.66,7.16-3.41V276.84c0-14.09-1.11-23.67-8.37-23.67-11.23,0-21.58,23.56-22,32.15v18.94c0,2.75,4.84,3.19,7.15,3.41v1.1H315.92v-1.1c2.76-.22,7.16-.66,7.16-3.41V252.62c0-2.75-4.4-3-7.16-3.3Z"/><path class="cls-1" d="M384.29,307.67c2.75-.22,7.16-.66,7.16-3.41V228.18c0-2.86-4.41-3.08-7.16-3.41v-1.1h17.18V282c4.18-14.31,24.22-34.9,37.76-34.9,3.85,0,6.72,1.32,6.72,3,0,3.3-5.4,6.27-10.57,10.57-6.06,5.06-12.55,10-7.6,17.84,1.54,2.09,3.08,4.29,4.73,6.49l9.69,13.21c1.65,2.21,3.19,4.41,4.74,6.5,2,2.31,6.6,2.75,8.8,3v1.1H431.52v-1.1c2.65-.22,5.18-.55,3.31-3.41l-18.5-25c-4.62-7.27,10.13-15.42,15.74-19.82,1.65-1.32,2.87-2.2,2.87-3.09,0-3.19-7.38-.77-9.69.45-9.58,5.17-23.78,20.58-23.78,31.7v15.75c0,2.75,5.94,3.19,8.25,3.41v1.1H384.29Z"/><path class="cls-1" d="M464,248.22c3.41-2.86,8.81-9.58,8.81-12.88,0-1.43-.89-2.54-3.64-3.31a4.41,4.41,0,0,1-3.3-4.51,5.86,5.86,0,0,1,5.83-6.06c3.42,0,6.28,2.43,6.28,7,0,3.74-.22,10.68-13.21,20.59Z"/><path class="cls-1" d="M486,289.51l1.32-.45c4.62,12.23,14.42,17.07,24.33,17.07,9.14,0,13.87-5.83,13.87-10.46-.22-5.28-5.72-8.48-11.34-11.23L501,278.94c-6.28-2.65-10.9-8.7-11-14.65,0-5.61,4.51-16.84,18.06-17.28h1.32c11.34,0,18.49,5.39,23.56,13.76l-1.1.88a22.57,22.57,0,0,0-4.08-4.84A22.12,22.12,0,0,0,511.45,250c-7.16.11-12.55,5.5-12.55,10.79s3.74,8.7,10.13,11.23l11.12,4.51c6.16,2.43,13.87,8.15,14,15.86,0,8.26-5.62,16.51-21.47,17.06h-1C498.79,309.43,490,300.74,486,289.51Z"/><path class="cls-1" d="M179.73,409.66v-1.32c2.76-.33,7.71-.55,7.71-3.52V329.4c0-3-4.95-3.19-7.71-3.52v-1.32h28.74c25,0,45.8,13.21,45.8,42.05,0,25.44-22,43.05-41.51,43.05Zm18.83-4.84c0,2.86,4.85,3.52,7.6,3.52h4.29c15,0,30.94-13.43,30.94-40.19,0-20.8-6.72-42.27-33-42.27h-2.09c-2.64,0-7.71.55-7.71,3.52Z"/><path class="cls-1" d="M291.48,347.79c9,0,21.36,5.83,21.36,16.29,0,3.85-2.64,7.93-12.77,7.93l-4.4-.11c-16.3,0-19.82,12.22-20.26,20.26,0,0,5.94,12.33,17.39,13.54,12.66,1.32,21.47-7.38,26.54-17.84l1.21.44c-4.85,11.67-14.76,22-29.62,22-16.18,0-28.85-16.73-28.85-31.81C262.08,362.43,274.64,347.79,291.48,347.79Zm-19.16,27.52a47.32,47.32,0,0,0,2.1,14c1-8.69,6.05-19.59,22.79-19.59,2.64,0,6.38,0,6.38-3.2,0-8.36-5.5-17.28-14.75-17.28C275.52,349.22,272.32,365.07,272.32,375.31Z"/><path class="cls-1" d="M321.75,390.4l1.32-.45C327.7,402.18,337.5,407,347.41,407c9.13,0,13.87-5.83,13.87-10.46-.22-5.28-5.73-8.48-11.34-11.23l-13.21-5.5c-6.28-2.65-10.9-8.7-11-14.65,0-5.61,4.51-16.84,18-17.28h1.32c11.34,0,18.5,5.39,23.56,13.76l-1.1.88a22.54,22.54,0,0,0-4.07-4.84,22.12,22.12,0,0,0-16.29-6.83c-7.16.11-12.56,5.5-12.56,10.79s3.75,8.7,10.13,11.23l11.12,4.51c6.17,2.43,13.88,8.15,14,15.86,0,8.26-5.62,16.51-21.47,17.06h-1C334.52,410.32,325.72,401.63,321.75,390.4Z"/><path class="cls-1" d="M394.08,349.11v56c0,2.86,4.85,3.08,7.16,3.41v1.1H376.91v-1.1c2.75-.33,7.15-.55,7.15-3.41V353.62c0-2.75-4.4-3.08-7.15-3.41v-1.1ZM382.3,332.26a6.61,6.61,0,0,1,13.22,0,6.61,6.61,0,1,1-13.22,0Z"/><path class="cls-1" d="M402.12,435.65c0-12.33,14.64-17.84,20.37-27.53-6.5-4.51-1.88-9.25,2.86-13-1.54-6.06-17.73-11.34-17.73-25.65,0-12.77,12.22-21.25,25.22-21.25a28.69,28.69,0,0,1,7,.88h20.7v1.43H443.85c7,3.3,11.45,10,11.45,18.83,0,21.8-25.22,19.48-26.87,28.18-.88,4.74,14.75,9.91,24.66,17.4,5.18,3.85,8.26,7.81,7.82,16.4s-9.69,20-26.75,20S402.12,447,402.12,435.65Zm56.26.22c.88-11.45-29.95-24-34.68-27-3.42,7.49-11,12.33-12,20.26C409.49,447.65,457.39,448.64,458.38,435.87Zm-40.85-66.61c0,14.64,6.94,17.39,9.25,25.1C439.55,388,445,382.25,445,369s-5.84-19.38-13.77-19.38S417.53,356.59,417.53,369.26Z"/><path class="cls-1" d="M466.3,349.11h17.18v30.5c2.31-11.9,14.09-31.27,25.32-31.27,15.52,0,15.08,13.43,15.08,29.5v27.31c0,2.75,4.85,3.19,7.16,3.41v1.1H506.71v-1.1c2.75-.22,7.16-.66,7.16-3.41V377.73c0-14.09-1.11-23.67-8.37-23.67-11.23,0-21.58,23.56-22,32.15v18.94c0,2.75,4.84,3.19,7.15,3.41v1.1H466.3v-1.1c2.75-.22,7.16-.66,7.16-3.41V353.51c0-2.75-4.41-3-7.16-3.3Z"/><path class="cls-1" d="M13,429.05a7.8,7.8,0,0,1,3.4,3.25,10.14,10.14,0,0,1,1.18,5,10,10,0,0,1-1.18,5,7.73,7.73,0,0,1-3.4,3.22,11.86,11.86,0,0,1-5.34,1.11H2.15V427.93H7.69A11.73,11.73,0,0,1,13,429.05Zm.63,14a7.74,7.74,0,0,0,2.05-5.73,7.84,7.84,0,0,0-2.05-5.77,8,8,0,0,0-6-2.08H4v15.63H7.69A8.13,8.13,0,0,0,13.66,443.06Z"/><path class="cls-1" d="M33.67,429.45v7h7.1V438h-7.1v7.11h7.91v1.55H31.79V427.9h9.79v1.55Z"/><path class="cls-1" d="M58.42,446.21a5.4,5.4,0,0,1-2.21-1.8,4.79,4.79,0,0,1-.86-2.57h2a3.8,3.8,0,0,0,1.2,2.4,5.22,5.22,0,0,0,6.16.05,3.16,3.16,0,0,0,1.11-2.48,2.93,2.93,0,0,0-.62-1.94,3.76,3.76,0,0,0-1.53-1.1,21.68,21.68,0,0,0-2.52-.79,22.17,22.17,0,0,1-3-1,4.87,4.87,0,0,1-1.88-1.51,4.39,4.39,0,0,1-.77-2.76,4.59,4.59,0,0,1,.75-2.58,5,5,0,0,1,2.11-1.79,7.43,7.43,0,0,1,3.14-.64A6.56,6.56,0,0,1,65.71,429a4.78,4.78,0,0,1,1.84,3.29h-2a3.32,3.32,0,0,0-1.26-2,5,5,0,0,0-5.71,0,3,3,0,0,0-1.12,2.45,2.77,2.77,0,0,0,.62,1.9,3.82,3.82,0,0,0,1.54,1.1,23.26,23.26,0,0,0,2.5.81,22.63,22.63,0,0,1,3,1,4.74,4.74,0,0,1,1.9,1.52,4.38,4.38,0,0,1,.78,2.73,4.82,4.82,0,0,1-.69,2.49A5.19,5.19,0,0,1,65,446.13a6.92,6.92,0,0,1-3.27.72A7.77,7.77,0,0,1,58.42,446.21Z"/><path class="cls-1" d="M83.93,427.93v18.73H82.05V427.93Z"/><path class="cls-1" d="M113.66,433.39a6.41,6.41,0,0,0-2.46-2.9,7,7,0,0,0-3.87-1.06,7.37,7.37,0,0,0-3.75,1,6.84,6.84,0,0,0-2.63,2.75,8.61,8.61,0,0,0-1,4.14,8.72,8.72,0,0,0,1,4.16,6.93,6.93,0,0,0,2.63,2.76,7.82,7.82,0,0,0,7.28.12,6.64,6.64,0,0,0,2.52-2.42,7.93,7.93,0,0,0,1.08-3.65h-7.88v-1.53h9.86v1.37a9.43,9.43,0,0,1-1.34,4.46,8.79,8.79,0,0,1-3.23,3.15,9,9,0,0,1-4.54,1.15,9.33,9.33,0,0,1-4.72-1.22,8.87,8.87,0,0,1-3.34-3.4,10.71,10.71,0,0,1,0-9.89,8.83,8.83,0,0,1,3.34-3.41,9.84,9.84,0,0,1,10,.28,8.43,8.43,0,0,1,3.27,4.18Z"/><path class="cls-1" d="M144.72,446.66h-1.87L132.47,430.9v15.76H130.6V427.93h1.87l10.38,15.73V427.93h1.87Z"/><path class="cls-1" d="M192,446.66l-2.55-2.6a9.1,9.1,0,0,1-2.92,2.21,8.28,8.28,0,0,1-3.51.71,7.41,7.41,0,0,1-3.33-.71,5.38,5.38,0,0,1-2.25-2,5.47,5.47,0,0,1-.8-3,5.56,5.56,0,0,1,1.12-3.46,7.28,7.28,0,0,1,3.3-2.3,8.74,8.74,0,0,1-1.37-1.94,4.56,4.56,0,0,1-.43-2,3.67,3.67,0,0,1,1.29-2.91,5.07,5.07,0,0,1,3.43-1.11,4.65,4.65,0,0,1,3.27,1.15,3.67,3.67,0,0,1,1.18,3h-1.88a2.37,2.37,0,0,0-.73-1.91,2.77,2.77,0,0,0-1.92-.7,2.88,2.88,0,0,0-2,.69,2.23,2.23,0,0,0-.76,1.75,3.3,3.3,0,0,0,.47,1.67,11.45,11.45,0,0,0,1.49,1.9l6.16,6.25c.25-.34.59-.88,1-1.61L192,437h2l-2,3.51a24.47,24.47,0,0,1-1.45,2.25l3.92,3.94Zm-6.16-1.93a7.48,7.48,0,0,0,2.38-1.93l-6-6.06q-3.74,1.38-3.73,4.51a3.83,3.83,0,0,0,.58,2.1,3.94,3.94,0,0,0,1.59,1.46,4.93,4.93,0,0,0,2.34.54A6.28,6.28,0,0,0,185.88,444.73Z"/><path class="cls-1" d="M237.28,438.59a4.6,4.6,0,0,1,1.1,3.06,4.68,4.68,0,0,1-.71,2.56,4.83,4.83,0,0,1-2.07,1.8,7.66,7.66,0,0,1-3.27.65h-6.49V427.93h6.3a6.33,6.33,0,0,1,4.33,1.31,4.33,4.33,0,0,1,1.48,3.4,4.2,4.2,0,0,1-.93,2.83A5,5,0,0,1,234.6,437,4.45,4.45,0,0,1,237.28,438.59Zm-9.56-2.38h4.36a4.34,4.34,0,0,0,2.94-.9,3.1,3.1,0,0,0,1-2.48,3,3,0,0,0-1-2.44,4.52,4.52,0,0,0-3-.88h-4.28Zm7.65,7.91a3.64,3.64,0,0,0-.06-5.35,4.79,4.79,0,0,0-3.2-1h-4.39v7.32h4.47A4.79,4.79,0,0,0,235.37,444.12Z"/><path class="cls-1" d="M254.36,427.93v11.79a5.63,5.63,0,0,0,1.33,4.13,4.88,4.88,0,0,0,3.63,1.34,4.77,4.77,0,0,0,3.6-1.33,5.69,5.69,0,0,0,1.3-4.14V427.93h1.88v11.76a7,7,0,0,1-1.89,5.36,7.62,7.62,0,0,1-9.84,0,7,7,0,0,1-1.89-5.36V427.93Z"/><path class="cls-1" d="M282.88,427.93v18.73H281V427.93Z"/><path class="cls-1" d="M299.74,445.14h6.73v1.52h-8.61V427.93h1.88Z"/><path class="cls-1" d="M330.75,429.05a7.82,7.82,0,0,1,3.41,3.25,10.14,10.14,0,0,1,1.18,5,10,10,0,0,1-1.18,5,7.76,7.76,0,0,1-3.41,3.22,11.82,11.82,0,0,1-5.33,1.11h-5.55V427.93h5.55A11.68,11.68,0,0,1,330.75,429.05Zm.63,14a7.75,7.75,0,0,0,2.06-5.73,7.85,7.85,0,0,0-2.06-5.77,8,8,0,0,0-6-2.08h-3.67v15.63h3.67A8.08,8.08,0,0,0,331.38,443.06Z"/></g></g></svg>